# xmcd
#
# Track frame offsets: 
#        150
#        26804
#        56320
#        82098
#        98326
#        123061
#        154779
#        179168
#        213834
#
# Disc length: 3280 seconds
#
# Revision: 2
# Processed by: cddbd v1.5.2PL0 Copyright (c) Steve Scherf et al.
# Submitted via: ExactAudioCopy v1.0b3
#
DISCID=6c0cce09
DTITLE=Various Artist - We Out Here
DYEAR=2017
DGENRE=Jazz
TTITLE0=Maisha - Inside the acorn
TTITLE1=Ezra collective - Pure shade
TTITLE2=Moses Boyd - The balance
TTITLE3=Theon Cross - Brockley
TTITLE4=Nubya Garcia - Once
TTITLE5=Shabaka Hutchings - Black skin, black masks
TTITLE6=Triforce - Walls
TTITLE7=Joe Armon-Jones - Go see
TTITLE8=Kokoroko - Abusey junction
EXTD=YEAR: 2017
EXTT0=
EXTT1=
EXTT2=
EXTT3=
EXTT4=
EXTT5=
EXTT6=
EXTT7=
EXTT8=
PLAYORDER=
